<svg width="1400" height="900" viewBox="0 0 1400 900" fill="none" xmlns="http://www.w3.org/2000/svg">
  <defs>
    <linearGradient id="bg" x1="132" y1="86" x2="1158" y2="802" gradientUnits="userSpaceOnUse">
      <stop offset="0" stop-color="#173B63"/>
      <stop offset="1" stop-color="#2E648F"/>
    </linearGradient>
    <radialGradient id="glow" cx="0" cy="0" r="1" gradientUnits="userSpaceOnUse" gradientTransform="translate(1018 178) rotate(136.321) scale(362.143 413.283)">
      <stop stop-color="#F2D8A0" stop-opacity="0.55"/>
      <stop offset="1" stop-color="#F2D8A0" stop-opacity="0"/>
    </radialGradient>
    <linearGradient id="gold" x1="525" y1="260" x2="857" y2="572" gradientUnits="userSpaceOnUse">
      <stop offset="0" stop-color="#E8D6AF"/>
      <stop offset="1" stop-color="#B98B34"/>
    </linearGradient>
  </defs>

  <rect width="1400" height="900" rx="48" fill="#F5F0E5"/>
  <rect x="52" y="52" width="1296" height="796" rx="42" fill="url(#bg)"/>
  <rect x="52" y="52" width="1296" height="796" rx="42" fill="url(#glow)"/>

  <g opacity="0.18">
    <circle cx="250" cy="220" r="6" fill="white"/>
    <circle cx="330" cy="680" r="8" fill="white"/>
    <circle cx="1110" cy="250" r="7" fill="white"/>
    <circle cx="1180" cy="620" r="5" fill="white"/>
    <circle cx="980" cy="730" r="5" fill="white"/>
  </g>

  <g opacity="0.3">
    <path d="M228 652C300 560 432 518 566 534" stroke="#D8E7F6" stroke-width="2"/>
    <path d="M1180 286C1095 234 1003 236 910 286" stroke="#D8E7F6" stroke-width="2"/>
    <path d="M1080 664C978 600 862 584 742 614" stroke="#D8E7F6" stroke-width="2"/>
  </g>

  <g>
    <rect x="156" y="144" width="438" height="612" rx="34" fill="white" fill-opacity="0.10" stroke="white" stroke-opacity="0.16"/>
    <text x="206" y="238" fill="white" font-family="Segoe UI, Noto Sans KR, sans-serif" font-size="24" font-weight="700">Whole Knowledge, Used Wisely</text>
    <text x="206" y="308" fill="#EDF4FB" font-family="Segoe UI, Noto Sans KR, sans-serif" font-size="58" font-weight="800">Elvis</text>
    <text x="206" y="370" fill="#E8EEF6" font-family="Segoe UI, Noto Sans KR, sans-serif" font-size="24">지식을 모아두고, 필요한 순간</text>
    <text x="206" y="406" fill="#E8EEF6" font-family="Segoe UI, Noto Sans KR, sans-serif" font-size="24">바로 꺼내 쓰게 만드는 사내 플랫폼</text>

    <rect x="206" y="476" width="154" height="50" rx="25" fill="#F0DDAD"/>
    <text x="238" y="508" fill="#183B61" font-family="Segoe UI, Noto Sans KR, sans-serif" font-size="18" font-weight="700">노무상담</text>

    <rect x="378" y="476" width="140" height="50" rx="25" fill="white" fill-opacity="0.16" stroke="white" stroke-opacity="0.24"/>
    <text x="418" y="508" fill="white" font-family="Segoe UI, Noto Sans KR, sans-serif" font-size="18" font-weight="700">근거</text>

    <text x="206" y="610" fill="#D8E4EF" font-family="Segoe UI, Noto Sans KR, sans-serif" font-size="18">규정 · 사례 · 판례 · 의견서 스타일</text>
    <text x="206" y="642" fill="#D8E4EF" font-family="Segoe UI, Noto Sans KR, sans-serif" font-size="18">하나의 화면에서 연결하고 활용하는 지식 허브</text>
  </g>

  <g>
    <rect x="700" y="162" width="520" height="576" rx="40" fill="white" fill-opacity="0.08" stroke="white" stroke-opacity="0.14"/>
    <rect x="760" y="232" width="400" height="350" rx="34" fill="white" fill-opacity="0.85"/>
    <path d="M824 286C824 271.641 835.641 260 850 260H960V520H902C859.49 520 824 484.51 824 442V286Z" fill="#F9FBFD"/>
    <path d="M1096 286C1096 271.641 1084.36 260 1070 260H960V520H1018C1060.51 520 1096 484.51 1096 442V286Z" fill="#EEF4FA"/>
    <path d="M850 260H960V296H850C844.477 296 840 300.477 840 306V442C840 475.137 868.863 504 902 504H960V540H902C850.131 540 808 497.869 808 446V302C808 278.804 826.804 260 850 260Z" fill="url(#gold)"/>
    <path d="M1070 260H960V296H1070C1075.52 296 1080 300.477 1080 306V442C1080 475.137 1051.14 504 1018 504H960V540H1018C1069.87 540 1112 497.869 1112 446V302C1112 278.804 1093.2 260 1070 260Z" fill="url(#gold)"/>

    <circle cx="960" cy="216" r="22" fill="#E8D6AF"/>
    <circle cx="748" cy="390" r="16" fill="#D7E6F5"/>
    <circle cx="1174" cy="392" r="16" fill="#D7E6F5"/>
    <circle cx="960" cy="644" r="18" fill="#D7E6F5"/>

    <path d="M960 238V260" stroke="#E8D6AF" stroke-width="6" stroke-linecap="round"/>
    <path d="M764 392H808" stroke="#D7E6F5" stroke-width="6" stroke-linecap="round"/>
    <path d="M1112 392H1158" stroke="#D7E6F5" stroke-width="6" stroke-linecap="round"/>
    <path d="M960 540V620" stroke="#D7E6F5" stroke-width="6" stroke-linecap="round"/>
  </g>
</svg>
